<?xml version="1.0" standalone="no"?><!DOCTYPE svg PUBLIC "-//W3C//DTD SVG 1.1//EN" "http://www.w3.org/Graphics/SVG/1.1/DTD/svg11.dtd"><svg t="1769590502549" class="icon" viewBox="0 0 1024 1024" version="1.1" xmlns="http://www.w3.org/2000/svg" p-id="1683" xmlns:xlink="http://www.w3.org/1999/xlink" width="256" height="256"><path d="M782.7456 691.0464c-16.9472 0-30.72-13.7728-30.72-30.72V483.0208c0-16.9472 13.7728-30.72 30.72-30.72h83.7632c0.3584 0 0.512-0.0512 0.512-0.0512 0.0512-0.1024 0.256-0.6144 0.256-0.9216-0.0512 0-0.1024-0.1536-0.3072-0.3072l-94.464-84.3264c-6.5536-5.8368-10.24-14.1824-10.24-22.9376V226.7136h-40.704v25.9072c0 12.1344-7.1168 23.0912-18.176 28.0576-11.0592 4.9152-24.0128 2.9184-33.024-5.12l-151.9104-135.6288c-3.5328-3.1744-8.8576-3.1744-12.3904 0l-340.992 306.3296c-0.6656 0.6144-1.792 1.5872-0.9216 3.84 0.8704 2.2528 2.3552 2.2528 3.2768 2.2528h80.2304c16.9472 0 31.0272 13.7728 31.0272 30.72v78.2848c0 16.9472-13.7728 30.72-30.72 30.72s-30.72-13.7728-30.72-30.72v-47.5648H167.424c-27.136 0-50.944-16.384-60.6208-41.6768-9.728-25.344-2.9184-53.4016 17.2544-71.5264L465.1008 94.208c26.8288-24.1152 67.4304-24.1664 94.3616-0.1536l106.6496 95.232c7.9872-14.2848 23.296-24.0128 40.8064-24.0128h70.0928c25.8048 0 46.7456 20.992 46.7456 46.7456v118.016l84.224 75.2128c19.4048 17.3056 25.9584 44.1856 16.6912 68.5056-9.2672 24.32-32.0512 39.9872-58.0608 39.9872H813.568v146.5344c-0.1024 16.9984-13.824 30.7712-30.8224 30.7712z" fill="#415690" p-id="1684"></path><path d="M584.0896 451.9424H441.9072c-16.9472 0-30.72-13.7728-30.72-30.72V341.248c0-41.5232 33.7408-75.264 75.264-75.264h53.0432c41.5232 0 75.264 33.7408 75.264 75.264v79.9744c0.0512 16.9472-13.7216 30.72-30.6688 30.72z m-111.4624-61.44h80.6912v-49.2544c0-7.6288-6.1952-13.824-13.824-13.824H486.4512c-7.6288 0-13.824 6.1952-13.824 13.824v49.2544z" fill="#415690" p-id="1685"></path><path d="M912.128 664.9856c-20.6336-38.1952-65.28-55.3984-105.7792-41.0624l-137.216 46.2336c-0.0512 0-0.0512-0.0512-0.1024-0.0512-28.2624-19.2512-172.288-103.2704-228.3008-134.7584-72.448-40.7552-162.8672-35.6864-230.2464 13.0048l-75.264 54.3232a54.9376 54.9376 0 0 0-22.7328 44.3904v177.9712c0 16.2816 7.168 31.5904 19.6608 42.0352a54.7328 54.7328 0 0 0 44.8512 11.8784l67.1232-12.1344c14.2848-2.6112 29.184-1.536 42.9568 3.0208L475.1872 931.84a249.9328 249.9328 0 0 0 78.4384 12.6464c48.4352 0 96.1536-14.2336 137.7792-41.984l190.8736-122.0608c38.4512-24.6784 51.5584-75.3664 29.8496-115.456z m-62.9248 63.5904l-191.0784 122.2656c-0.1536 0.1024-0.3584 0.2048-0.512 0.3584-48.384 32.3072-107.8272 40.448-163.1232 22.2208l-188.1088-62.0032c-15.0528-4.9664-30.8736-7.4752-46.6944-7.4752-8.8576 0-17.7152 0.768-26.4704 2.3552l-59.2896 10.7008v-166.5536l72.4992-52.3264c48.0768-34.7136 112.4864-38.3488 164.1472-9.2672 52.736 29.6448 165.376 95.4368 209.5104 122.8288-3.2768 4.1984-8.1408 8.704-14.8992 12.6464-7.3728 4.3008-19.4048 6.4512-36.7616 6.4512-12.4928 0-26.2656-2.9184-40.9088-8.704l-0.768-0.3584c-53.9648-25.856-98.56-49.2032-98.9696-49.3568-15.0016-7.936-33.5872-2.1504-41.5232 12.8512-7.936 15.0016-2.1504 33.5872 12.8512 41.5232 0.4096 0.2048 46.336 24.2176 101.5296 50.688 0.3072 0.1536 0.6144 0.3072 0.9728 0.4096l1.7408 0.768c0.3072 0.1536 0.6144 0.256 0.9728 0.4096 22.0672 8.8064 43.6224 13.2608 64.1024 13.2608 29.0304 0 50.5856-4.7104 67.8912-14.8992 19.8656-11.6736 34.9184-27.8016 43.3152-45.8752l146.7904-49.4592a26.0096 26.0096 0 0 1 31.6928 12.1856c6.4512 11.9296 2.5088 27.0336-8.9088 34.3552z" fill="#415690" p-id="1686"></path></svg>