<?xml version="1.0" standalone="no"?><!DOCTYPE svg PUBLIC "-//W3C//DTD SVG 1.1//EN" "http://www.w3.org/Graphics/SVG/1.1/DTD/svg11.dtd"><svg t="1769590658231" class="icon" viewBox="0 0 1024 1024" version="1.1" xmlns="http://www.w3.org/2000/svg" p-id="5155" xmlns:xlink="http://www.w3.org/1999/xlink" width="256" height="256"><path d="M832.590769 39.384615l66.56 433.23077h-258.756923L563.987692 39.384615h268.603077M866.461538 0h-349.341538l90.190769 512H945.230769L866.461538 0zM444.258462 39.384615l76.406153 433.23077H81.92l33.476923-433.23077h328.861539m33.083076-39.384615H78.769231L39.384615 512h528.147693L477.341538 0zM917.661538 590.769231l60.258462 393.846154h-247.335385l-69.316923-393.846154h256.393846m33.476924-39.384616H614.4l83.495385 472.615385H1024l-72.861538-472.615385zM541.144615 590.769231l69.71077 393.846154H42.535385l30.326153-393.846154h468.283077m33.083077-39.384616H36.233846L0 1024h657.723077l-83.495385-472.615385z" fill="#76a8fe" p-id="5156"></path></svg>