<?xml version="1.0" standalone="no"?><!DOCTYPE svg PUBLIC "-//W3C//DTD SVG 1.1//EN" "http://www.w3.org/Graphics/SVG/1.1/DTD/svg11.dtd"><svg t="1769590527494" class="icon" viewBox="0 0 1024 1024" version="1.1" xmlns="http://www.w3.org/2000/svg" p-id="2113" xmlns:xlink="http://www.w3.org/1999/xlink" width="256" height="256"><path d="M88.333594 423.724138a353.103448 335.448276 90 1 0 670.896552 0 353.103448 335.448276 90 1 0-670.896552 0Z" fill="#E4EAF6" p-id="2114"></path><path d="M551.075663 994.833655c-68.502069 0-137.957517-42.937379-138.840275-43.820138-129.024-71.891862-186.862345-128.03531-182.413242-177.116689 2.648276-29.801931 27.577379-44.702897 40.92469-49.08138l6.214621-1.765517h3.566344l210.90869 54.377931c4.449103-29.837241 24.929103-49.11669 33.82731-56.143448l0.882759-0.882759 0.882759-0.882758 171.749517-99.045518 0.882758-0.882758a154.941793 154.941793 0 0 1 64.088276-13.170759c91.665655 0 182.413241 71.044414 199.326897 85.062621 1.765517 0.882759 2.683586 2.612966 2.683586 4.378483 3.531034 4.378483 5.331862 9.639724 5.331862 15.783724 0 14.018207-12.464552 25.423448-27.577379 25.423448a24.929103 24.929103 0 0 1-11.581793-2.612966h-1.765517c-1.765517 0-3.566345-0.882759-4.449104-1.765517-0.918069-0.882759-84.532966-71.009103-161.968552-71.009103-14.230069 0-28.495448 2.612966-40.041931 7.874207l-164.652138 96.432551c-3.531034 3.531034-11.546483 11.405241-14.230069 20.197518 0 6.10869 1.765517 11.369931 7.13269 17.513931 0.882759 0.882759 9.780966 7.026759 24.011035 7.026758 11.581793 0 23.163586-3.531034 35.592827-11.405241 0.918069 0 0.918069-0.882759 1.765517-0.882759l71.220966-37.711448c0.882759-0.847448 1.765517-0.847448 2.683586-0.847448 0.882759 0 1.765517 0 2.648276 0.847448 1.765517 0 4.449103-0.847448 6.249931-0.847448 15.112828 0 27.542069 11.369931 27.542069 25.423448 0 7.874207-3.531034 14.900966-9.745655 20.126897 0 1.765517-1.765517 3.531034-2.683586 3.531034l-69.420138 36.82869c-20.48 13.135448-42.725517 19.279448-64.971035 19.279448-6.214621 0-12.429241-0.882759-16.878345-1.765517-24.011034-4.378483-41.842759-14.865655-49.858207-25.423449L286.777732 780.076138c2.648276 10.522483 23.128276 48.198621 154.835862 120.973241h0.882759c16.030897 10.522483 66.736552 35.945931 109.462069 35.945931 8.898207 0 17.796414-0.847448 24.929104-3.495724h1.765517L748.637043 890.526897c36.475586-8.756966 85.415724-14.018207 137.922207-14.018207 15.995586 0 32.909241 0.882759 49.822896 1.765517 1.765517 0 3.531034 0.882759 4.449104 2.612965 12.464552 2.648276 20.48 13.170759 20.48 25.423449 0 13.170759-9.780966 23.657931-23.128276 25.423448l-0.918069 0.882759a6.850207 6.850207 0 0 1-4.449104 1.765517c-15.112828-0.882759-30.260966-0.882759-45.373793-0.882759-70.267586 0-113.911172 8.756966-124.574896 12.288h-1.765518L592.847801 988.689655c-13.34731 3.531034-27.577379 6.144-41.807448 6.144zM167.74656 747.661241a26.306207 26.306207 0 0 1-20.409379-9.992827C61.25056 625.911172 31.942974 476.866207 68.347939 339.685517 120.713181 143.36 295.534698 6.144 494.331939 6.144c39.053241 0 78.106483 5.473103 116.276966 16.34869 106.496 30.013793 197.914483 99.080828 257.377103 195.407448 58.579862 95.408552 79.872 209.001931 61.228138 319.841103a25.882483 25.882483 0 0 1-24.823172 21.821793h-4.449104a23.481379 23.481379 0 0 1-15.995586-9.992827c-4.413793-5.437793-5.296552-12.711724-4.413793-19.985655 35.486897-204.446897-85.203862-399.854345-281.352828-455.291586a396.747034 396.747034 0 0 0-102.964965-14.512552c-67.442759 0-134.002759 18.149517-193.465379 52.683034-90.535724 52.718345-155.294897 139.052138-182.836966 241.734621-32.838621 123.586207-7.062069 251.727448 70.126345 351.691034a27.400828 27.400828 0 0 1-4.449104 36.334345 28.742621 28.742621 0 0 1-16.843034 5.437793z" fill="#415690" p-id="2115"></path><path d="M487.552353 612.846345v-101.517242H398.429043c-15.148138 0-27.61269-10.24-27.61269-24.222896 0-13.029517 12.464552-24.222897 27.61269-24.222897h90.041379v-48.410482h-90.041379c-15.148138 0-27.61269-10.24-27.61269-24.222897 0-13.064828 12.464552-24.222897 27.61269-24.222897h71.326896L405.526422 299.890759a28.460138 28.460138 0 0 1 0-38.170483 24.328828 24.328828 0 0 1 17.831724-7.450483c7.13269 0 13.382621 2.789517 17.831724 7.415173l70.373518 72.668689 70.408827-72.633379a25.140966 25.140966 0 0 1 17.831724-8.403862c7.13269 0 13.34731 2.824828 17.831724 8.403862a26.624 26.624 0 0 1 7.09738 18.608552 23.905103 23.905103 0 0 1-8.015449 18.643862l-63.240827 66.136276h71.256276c15.183448 0 27.648 10.24 27.648 24.222896 0 13.029517-10.699034 23.269517-24.964414 24.187586-0.882759 0-1.765517 0.953379-2.683586 0.95338H535.715663v48.410482h90.006069c15.148138 0 27.61269 10.24 27.61269 24.222897 0 13.064828-12.464552 24.222897-27.61269 24.222896h-88.240551v99.681104c0 17.655172-10.699034 30.72-24.929104 30.72-13.382621 0-24.964414-13.064828-24.964414-28.883862z" fill="#415690" p-id="2116"></path></svg>