<?xml version="1.0" standalone="no"?><!DOCTYPE svg PUBLIC "-//W3C//DTD SVG 1.1//EN" "http://www.w3.org/Graphics/SVG/1.1/DTD/svg11.dtd"><svg t="1769658068361" class="icon" viewBox="0 0 1024 1024" version="1.1" xmlns="http://www.w3.org/2000/svg" p-id="8050" xmlns:xlink="http://www.w3.org/1999/xlink" width="256" height="256"><path d="M841.8 313.2c-25.9-34.5-56.8-64.6-92-89.5-35.7-25.2-74.8-44.5-116.4-57.3-33.7-10.4-68.7-16.4-104.3-17.9V51.9L400.9 180.1l128.3 128.3v-95.9c29.1 1.4 57.7 6.4 85.4 15C761.4 272.7 860 406.4 860 560.1c0 191.9-156.1 348-348 348S164 752 164 560.1c0-37.7 6-74.8 17.8-110.1 5.6-16.8-3.5-34.9-20.2-40.5-16.8-5.6-34.9 3.5-40.5 20.2-14 41.9-21 85.7-21 130.3 0 55.6 10.9 109.6 32.4 160.4 20.8 49.1 50.5 93.1 88.3 130.9 37.8 37.8 81.9 67.5 130.9 88.3 50.8 21.5 104.8 32.4 160.4 32.4s109.6-10.9 160.4-32.4c49.1-20.8 93.1-50.5 130.9-88.3 37.8-37.8 67.5-81.9 88.3-130.9 21.5-50.8 32.4-104.8 32.4-160.4-0.1-89.7-28.5-175.1-82.3-246.8z" fill="#47444F" p-id="8051"></path><path d="M622.8 555.1c0-61.2-49.6-110.8-110.8-110.8S401.2 494 401.2 555.1 450.8 666 512 666s110.8-49.7 110.8-110.9z" fill="#47444F" p-id="8052"></path></svg>