<?xml version="1.0" standalone="no"?><!DOCTYPE svg PUBLIC "-//W3C//DTD SVG 1.1//EN" "http://www.w3.org/Graphics/SVG/1.1/DTD/svg11.dtd"><svg t="1769589434201" class="icon" viewBox="0 0 1024 1024" version="1.1" xmlns="http://www.w3.org/2000/svg" p-id="9224" xmlns:xlink="http://www.w3.org/1999/xlink" width="256" height="256"><path d="M718.528891 934.587032c51.729667-159.135562-3.479764-488.143033-129.048332-652.07388h55.803537c101.125345 55.803537 240.697843 472.059732 213.793324 652.07388h-140.548529z" fill="#6298FE" p-id="9225"></path><path d="M475.751677 65.791734l-30.681336 35.009824L343.860123 12.534366c77.318665-25.588998 163.039688-12.306483 226.014935 42.690766a225.081339 225.081339 0 0 1 75.324166 146.362282 236.793717 236.793717 0 0 1 55.464048-70.528882c54.78507-47.825541 123.234579-65.860905 181.584286-53.639293l-87.842831 76.766995-20.836149-23.849116 6.238114 36.622397-58.561887 51.177997-20.793714-23.849116 6.195678 36.664833-5.771316 5.049902a222.53517 222.53517 0 0 1 131.552065-26.946955c83.641652 8.911591 152.091161 63.654225 186.040081 138.76621l-134.352851-14.258546 4.880158-47.104126-27.286445 44.770138-89.540276-9.505698 4.880157-47.104126-27.286444 44.770138-127.817684-13.579568 1.570137-2.164244-0.424361 0.33949a169.659728 169.659728 0 0 1-0.424362-11.669942l-89.794893 20.369352-31.869549-40.78114 10.184676 45.74617-86.994107 19.520629-31.869549-40.823576 10.14224 45.746169-130.406289 29.493124c24.867584-77.658154 85.890768-139.487625 167.071123-157.862477 60.344205-13.66444 120.730847-0.806287 170.50845 31.148134L546.15325 189.365803l13.876621-49.862477-30.723773 35.009824-67.388606-58.85894 13.834185-49.862476z" fill="#BDD5FF" p-id="9226"></path><path d="M621.053055 286.120224a34.967388 34.967388 0 1 0 70.019647 0 34.967388 34.967388 0 0 0-70.019647 0z" fill="#FFFFFF" p-id="9227"></path><path d="M551.075843 297.74773a35.009824 35.009824 0 1 0 70.019648 0 35.009824 35.009824 0 0 0-70.019648 0z" fill="#FFFFFF" p-id="9228"></path><path d="M129.939491 559.324158c0-25.588998 20.793713-46.340276 46.382712-46.340276h480.971324c25.631435 0 46.382712 20.751277 46.382712 46.340276v394.104525H129.939491v-394.104525z" fill="#BDD5FF" p-id="9229"></path><path d="M386.847943 292.7827c20.114735-29.917486 66.709628-29.917486 86.824363 0 24.952456 37.216504 57.628292 81.137919 89.328096 110.079373 81.434972 74.263262 248.675839 133.291947 248.675838 133.291947s-53.936347 46.382712-95.354029 46.382712-53.936347-46.382712-95.354029-46.382712-53.936347 46.382712-95.354029 46.382712-53.978783-46.382712-95.354029-46.382712c-41.417682 0-53.978783 46.382712-95.354028 46.382712-41.417682 0-53.978783-46.382712-95.354029-46.382712-41.417682 0-53.978783 46.382712-95.396466 46.382712-23.000393 0-49.904912-14.343419-69.255796-27.074264-15.446759-10.184676-26.098232-19.308448-26.098233-19.308448s167.283303-59.028685 248.675839-133.291947c31.74224-28.941454 64.375639-72.862869 89.370532-110.079373z" fill="#0054F8" p-id="9230"></path><path d="M199.492341 692.616105c0-6.365422 5.17721-11.585069 11.585069-11.585069h144.877016c6.407859 0 11.585069 5.17721 11.585069 11.585069v243.413756h-168.047154v-243.413756zM471.889988 605.70687a11.585069 11.585069 0 0 0-11.585069 11.585069v57.925344c0 6.407859 5.17721 11.627505 11.585069 11.627506h57.925344c6.407859 0 11.627505-5.219646 11.627505-11.627506v-57.925344a11.585069 11.585069 0 0 0-11.627505-11.585069H471.889988zM471.889988 698.429857a11.585069 11.585069 0 0 0-11.585069 11.585069v57.967781c0 6.365422 5.17721 11.585069 11.585069 11.585069h57.925344c6.407859 0 11.627505-5.219646 11.627505-11.585069v-57.967781a11.585069 11.585069 0 0 0-11.627505-11.585069H471.889988zM553.027906 617.249503c0-6.365422 5.17721-11.542633 11.585069-11.542633h57.967781c6.365422 0 11.585069 5.17721 11.585069 11.585069v57.925344c0 6.407859-5.219646 11.627505-11.627505 11.627506h-57.925345a11.585069 11.585069 0 0 1-11.585069-11.627506v-57.925344zM564.612975 698.429857a11.585069 11.585069 0 0 0-11.585069 11.585069v57.967781c0 6.365422 5.17721 11.585069 11.585069 11.585069h57.967781c6.365422 0 11.585069-5.219646 11.585069-11.585069v-57.967781a11.585069 11.585069 0 0 0-11.627505-11.585069h-57.925345z" fill="#FFFFFF" p-id="9231"></path><path d="M269.045191 808.50923a23.170138 23.170138 0 1 1-46.382712 0 23.170138 23.170138 0 0 1 46.382712 0zM495.272306 892.872297c297.222794 0 495.272306 52.111592 495.272306 131.127703H0c0-79.016111 198.049512-131.127703 495.272306-131.127703z" fill="#0054F8" p-id="9232"></path></svg>