<?xml version="1.0" standalone="no"?><!DOCTYPE svg PUBLIC "-//W3C//DTD SVG 1.1//EN" "http://www.w3.org/Graphics/SVG/1.1/DTD/svg11.dtd"><svg t="1769589610773" class="icon" viewBox="0 0 1024 1024" version="1.1" xmlns="http://www.w3.org/2000/svg" p-id="4973" xmlns:xlink="http://www.w3.org/1999/xlink" width="256" height="256"><path d="M315.1872 647.1168h243.8656v64.4608H315.1872z" fill="#76a8fe" p-id="4974"></path><path d="M949.6064 345.2928l-357.3248-230.7072a30.72 30.72 0 0 0-31.7952-0.9216l-397.312 225.4336a30.68416 30.68416 0 0 0-11.0592 42.7008c8.7552 14.3872 27.904 18.3808 42.496 10.0864l52.0704-29.5424v53.0944L432.384 310.784a30.60224 30.60224 0 0 1 33.1776 1.9456l138.4448 101.0176c13.568 9.9328 17.8176 29.0304 8.2944 42.9056a30.7456 30.7456 0 0 1-43.264 7.6288L461.3632 385.6896a30.60224 30.60224 0 0 0-33.1776-1.9456l-7.9872 4.5056c-0.1024 0.0512-0.256 0.1024-0.4096 0.2048L252.3136 482.816v0.0512l-82.2784 46.3872v-0.0512L117.76 558.6432v0.0512l-62.7712 35.3792c-14.7968 8.3456-20.0192 27.0848-11.6736 41.8304a30.63808 30.63808 0 0 0 26.7776 15.616c5.12 0 10.2912-1.28 15.0528-3.9424l32.6144-18.3808v204.1856c0 47.9232 38.8608 86.784 86.784 86.784H798.208c47.9232 0 86.784-38.8608 86.784-86.784v-456.704l31.3344 20.224a30.73024 30.73024 0 0 0 42.496-9.1648 30.72 30.72 0 0 0-9.216-42.4448z m-329.1136 376.3712c0 28.3136-23.04 51.3536-51.3536 51.3536H305.1008c-28.3136 0-51.3536-23.04-51.3536-51.3536v-84.6336c0-28.3136 23.04-51.3536 51.3536-51.3536h264.0384c28.3136 0 51.3536 23.04 51.3536 51.3536v84.6336z m47.2064-368.8448h-95.8464c-16.9472 0-30.72-13.7728-30.72-30.72s13.7728-30.72 30.72-30.72h95.8464c16.9472 0 30.72 13.7728 30.72 30.72s-13.7728 30.72-30.72 30.72z" fill="#76a8fe" p-id="4975"></path></svg>